# xmcd
#
# Track frame offsets:
#	150
#	20115
#	41800
#	58745
#	77752
#	94990
#	113735
#	132050
#	149180
#	169127
#	192350
#	209142
#	228680
#	248165
#
# Disc length: 3541 seconds
#
# Revision: 3
# Processed by: cddbd v1.5.2PL0 Copyright (c) Steve Scherf et al.
# Submitted via: EasyCDDAExtractor 15.3.0.1
#
DISCID=da0dd30e
DTITLE=Yuri - Mas Fuerte Que La Vida
DYEAR=1996
DGENRE=Latin
TTITLE0=De Que Te Vale Fingir
TTITLE1=Imposible Amarte Como Yo
TTITLE2=Yo Te Pido Amor
TTITLE3=Todo Mi Corazon
TTITLE4=Dejala
TTITLE5=Maldita Primavera
TTITLE6=Es Ella Mas Que Yo
TTITLE7=No Puedo Mas
TTITLE8=Mas Fuerte Que La Vida
TTITLE9=Detras De Mi Ventana
TTITLE10=Amiga Mia
TTITLE11=Esperanzas
TTITLE12=Quien Eres Tu (Quem E Voce) (Love Will Lead You Back)
TTITLE13=Me Tienes Que Querer
EXTD=
EXTT0=
EXTT1=
EXTT2=
EXTT3=
EXTT4=
EXTT5=
EXTT6=
EXTT7=
EXTT8=
EXTT9=
EXTT10=
EXTT11=
EXTT12=
EXTT13=
PLAYORDER=
